<?xml version="1.0" encoding="utf-8"?>
<!-- Generator: Adobe Illustrator 23.0.5, SVG Export Plug-In . SVG Version: 6.00 Build 0)  -->
<svg version="1.1" xmlns="http://www.w3.org/2000/svg" xmlns:xlink="http://www.w3.org/1999/xlink" x="0px" y="0px"
	 viewBox="0 0 170.72 271.89" style="enable-background:new 0 0 170.72 271.89;" xml:space="preserve">
<style type="text/css">
	.st0{display:none;}
	.st1{display:inline;}
	.st2{fill:#F5F5F5;}
	.st3{fill:#E0E0E0;}
	.st4{fill:#EBEBEB;}
	.st5{fill:#E6E6E6;}
	.st6{fill:#F0F0F0;}
	.st7{fill:#FFFFFF;}
	.st8{fill:#FAFAFA;}
	.st9{opacity:0.6;fill:#E0E0E0;}
	.st10{fill:#407BFF;}
	.st11{opacity:0.9;fill:#FFFFFF;}
	.st12{opacity:0.8;fill:#FFFFFF;}
	.st13{opacity:0.3;fill:#FFFFFF;}
	.st14{opacity:0.3;}
	.st15{fill:#263238;}
	.st16{fill:#803E3C;}
	.st17{fill:#7F3E3B;}
	.st18{fill:#630F0F;}
	.st19{opacity:0.2;}
	.st20{opacity:0.4;}
	.st21{opacity:0.5;}
	.st22{opacity:0.4;fill:#FFFFFF;}
</style>
<g id="Слой_6" class="st0">
	<g class="st1">
		<g>
			<g>
				<g>
					<path class="st2" d="M41.66,225.3c17.18-16.24,17.75-41.52,13.58-63.53c-0.7-3.67-0.89-7.63-3.17-10.59
						c-2.28-2.96-6.77-4.54-9.88-2.46c-2.58,1.72-3.3,5.1-4.45,7.98c-1.53,3.83-4.16,7.21-7.5,9.63c-2.19,1.59-5.03,2.79-7.58,1.87
						c-3.5-1.26-4.56-5.6-5.1-9.28c-1.01-6.85-2.02-13.7-3.04-20.55c-0.54-3.68-1.11-7.43-2.8-10.73c-1.69-3.31-4.75-6.15-8.44-6.58
						c-3.69-0.43-7.76,2.26-7.95,5.97c-0.08,1.54,0.47,3.05,0.6,4.59c0.13,1.54-0.33,3.34-1.73,3.99c-1.42,0.66-3.07-0.15-4.35-1.05
						c-4.41-3.11-7.75-7.49-10.92-11.86c-3.17-4.37-6.28-8.87-10.39-12.38c-4.11-3.51-9.42-5.96-14.8-5.44
						c-5.38,0.53-10.55,4.65-11.1,10.03c-0.55,5.39,3.32,10.17,7.29,13.84c5.9,5.45,12.59,10.05,19.8,13.59
						c1.3,0.64,2.71,1.33,3.37,2.62c1.18,2.32-0.79,5.12-3.12,6.3c-2.63,1.34-5.69,1.52-8.54,2.31c-2.85,0.79-5.8,2.54-6.48,5.41
						c-0.94,3.99,2.84,7.43,6.37,9.53c7.06,4.19,14.85,7.16,22.91,8.74c2.89,0.57,5.9,0.99,8.4,2.54c2.5,1.56,4.34,4.65,3.41,7.44
						c-0.94,2.8-4.23,4.15-7.18,4.07c-2.95-0.08-5.75-1.22-8.64-1.81c-5.41-1.11-11.96,0.26-14.56,5.13
						c-1.71,3.2-1.28,7.22,0.33,10.47c1.62,3.25,4.28,5.85,7.04,8.2c9.66,8.22,21.33,14.24,33.82,16.46
						C19.37,231.98,30.53,231.38,41.66,225.3"/>
				</g>
			</g>
		</g>
		<g>
			<g>
				<g>
					<g>
						<path class="st3" d="M33.68,212.35c-5.02-10.65-11.51-21.87-18.7-33.38c-1.81-2.87-3.6-5.7-5.36-8.5
							c-1.76-2.79-3.51-5.55-5.39-8.14c-3.74-5.21-7.73-9.93-11.67-14.3c-3.94-4.37-7.83-8.38-11.51-12.1
							c-3.68-3.71-7.18-7.11-10.5-10.07c-6.63-5.95-12.53-10.12-16.71-12.81c-2.09-1.36-3.74-2.36-4.87-3.02
							c-0.55-0.32-0.98-0.57-1.29-0.75c-0.29-0.17-0.45-0.24-0.45-0.24s0.14,0.11,0.42,0.29c0.3,0.19,0.72,0.46,1.26,0.79
							c1.11,0.7,2.74,1.73,4.8,3.11c4.13,2.75,9.99,6.95,16.56,12.93c3.3,2.97,6.77,6.38,10.43,10.11
							c3.65,3.73,7.53,7.75,11.45,12.12c3.92,4.37,7.89,9.09,11.61,14.28c1.87,2.59,3.6,5.33,5.37,8.12
							c1.76,2.79,3.55,5.63,5.35,8.5c7.19,11.5,13.67,22.69,18.71,33.3"/>
					</g>
				</g>
			</g>
		</g>
		<g>
			<g>
				<g>
					<g>
						<path class="st3" d="M4.09,162.3c0.04,0,0.07-0.58,0.1-1.62c0.03-1.04,0.03-2.56,0-4.43c-0.05-3.74-0.29-8.9-0.56-14.58
							c-0.28-5.69-0.42-10.84-0.39-14.57c0.01-1.87,0.04-3.38,0.07-4.42c0.03-1.04,0.03-1.62-0.01-1.63c-0.04,0-0.11,0.57-0.2,1.61
							c-0.1,1.04-0.19,2.55-0.25,4.42c-0.14,3.74-0.05,8.91,0.23,14.61c0.28,5.64,0.54,10.74,0.73,14.57
							c0.07,1.79,0.13,3.27,0.17,4.42C4.01,161.72,4.05,162.3,4.09,162.3z"/>
					</g>
				</g>
			</g>
		</g>
		<g>
			<g>
				<g>
					<g>
						<path class="st3" d="M-45.11,160.88c0,0.02,0.18,0.02,0.5,0c0.39-0.03,0.87-0.06,1.44-0.1c1.24-0.09,3.04-0.23,5.27-0.32
							c4.45-0.22,10.62-0.31,17.42-0.1c6.8,0.22,12.95,0.68,17.39,1.15c2.22,0.22,4.01,0.45,5.25,0.6c0.57,0.07,1.04,0.12,1.43,0.17
							c0.33,0.03,0.5,0.04,0.5,0.02c0-0.02-0.16-0.06-0.49-0.13c-0.39-0.07-0.85-0.16-1.41-0.27c-1.23-0.22-3.02-0.51-5.24-0.78
							c-4.43-0.57-10.59-1.1-17.42-1.32c-6.82-0.21-13-0.06-17.46,0.27c-2.23,0.15-4.03,0.34-5.27,0.5
							c-0.57,0.08-1.03,0.15-1.43,0.2C-44.94,160.83-45.11,160.86-45.11,160.88z"/>
					</g>
				</g>
			</g>
		</g>
		<g>
			<g>
				<g>
					<g>
						<path class="st3" d="M33.01,211.55c0.02,0.01,0.1-0.21,0.23-0.63c0.14-0.48,0.32-1.09,0.54-1.84c0.47-1.6,1.09-3.92,1.81-6.81
							c1.46-5.77,3.24-13.8,5.08-22.68c1.85-8.89,3.56-16.92,4.92-22.71c0.68-2.84,1.24-5.16,1.64-6.85
							c0.18-0.76,0.33-1.38,0.44-1.86c0.1-0.43,0.14-0.66,0.12-0.66c-0.02,0-0.1,0.21-0.23,0.63c-0.14,0.48-0.32,1.09-0.54,1.84
							c-0.47,1.6-1.09,3.92-1.81,6.81c-1.46,5.77-3.24,13.8-5.09,22.69c-1.85,8.88-3.56,16.92-4.92,22.7
							c-0.68,2.84-1.24,5.16-1.64,6.85c-0.18,0.76-0.33,1.38-0.44,1.86C33.04,211.32,33,211.54,33.01,211.55z"/>
					</g>
				</g>
			</g>
		</g>
		<g>
			<g>
				<g>
					<g>
						<path class="st3" d="M-33.67,201.17c0,0.02,0.23,0.07,0.67,0.15c0.5,0.08,1.15,0.18,1.94,0.31c1.76,0.27,4.18,0.65,7.15,1.1
							c6.03,0.94,14.35,2.34,23.53,3.91c9.19,1.57,17.52,2.91,23.57,3.75c3.03,0.42,5.48,0.74,7.18,0.93
							c0.8,0.09,1.45,0.15,1.96,0.21c0.45,0.04,0.68,0.05,0.69,0.03c0-0.02-0.23-0.07-0.67-0.15c-0.5-0.08-1.15-0.18-1.94-0.31
							c-1.76-0.27-4.18-0.65-7.15-1.1c-6.03-0.94-14.35-2.34-23.54-3.91c-9.18-1.57-17.52-2.91-23.57-3.75
							c-3.03-0.42-5.48-0.74-7.18-0.93c-0.8-0.09-1.45-0.15-1.96-0.21C-33.43,201.16-33.67,201.15-33.67,201.17z"/>
					</g>
				</g>
			</g>
		</g>
	</g>
	<g class="st1">
		<g>
			
				<rect x="131.36" y="46.67" transform="matrix(0.3659 -0.9306 0.9306 0.3659 16.5225 210.3454)" class="st2" width="62.53" height="92.76"/>
		</g>
		<g>
			<g>
				<g>
					<path class="st3" d="M217.23,81.73c0.01,0.03-0.37,0.18-1.11,0.46c-0.82,0.29-1.89,0.68-3.23,1.16
						c-2.91,1-6.96,2.41-11.95,4.13c-10.2,3.44-24.15,8.14-39.61,13.35l-0.33,0.11l-0.17-0.3c-0.13-0.23-0.27-0.48-0.42-0.72
						c-8.19-14.33-15.61-27.29-21.03-36.77c-2.62-4.67-4.76-8.47-6.29-11.19c-0.7-1.27-1.25-2.29-1.67-3.06
						c-0.37-0.71-0.56-1.08-0.53-1.1s0.26,0.33,0.68,1.01c0.46,0.75,1.06,1.74,1.81,2.98c1.59,2.69,3.8,6.45,6.52,11.06
						c5.48,9.45,12.97,22.37,21.24,36.65c0.14,0.25,0.28,0.5,0.42,0.72l-0.5-0.19c15.49-5.12,29.47-9.73,39.69-13.11
						c5.02-1.62,9.1-2.93,12.03-3.87c1.36-0.42,2.45-0.76,3.28-1.01C216.83,81.81,217.23,81.71,217.23,81.73z"/>
				</g>
			</g>
		</g>
		<g>
			<g>
				<path class="st3" d="M108.02,105.98c-0.11-0.2,9.52-5.63,21.5-12.11c11.99-6.49,21.79-11.58,21.91-11.37
					c0.11,0.2-9.52,5.63-21.5,12.11C117.94,101.09,108.13,106.18,108.02,105.98z"/>
			</g>
		</g>
		<g>
			<g>
				<path class="st3" d="M180.41,93.05c0.22-0.07,3.52,10.37,7.37,23.32c3.85,12.95,6.79,23.49,6.57,23.56
					c-0.22,0.07-3.52-10.37-7.37-23.32C183.13,103.66,180.19,93.11,180.41,93.05z"/>
			</g>
		</g>
	</g>
	<g class="st1">
		<g>
			
				<rect x="149.39" y="-18.78" transform="matrix(0.9168 -0.3993 0.3993 0.9168 14.7654 70.7249)" class="st2" width="55.49" height="37.4"/>
		</g>
		<g>
			<g>
				<g>
					<path class="st3" d="M195.45-27.96c0.02,0.01-0.08,0.24-0.27,0.66c-0.22,0.47-0.51,1.09-0.88,1.86
						c-0.8,1.65-1.93,3.96-3.31,6.8c-2.86,5.77-6.77,13.66-11.11,22.4l-0.09,0.18l-0.2-0.05c-0.15-0.04-0.32-0.09-0.48-0.13
						c-9.53-2.59-18.15-4.94-24.45-6.66c-3.08-0.86-5.59-1.57-7.39-2.07c-0.83-0.24-1.5-0.44-2-0.59c-0.46-0.14-0.69-0.22-0.69-0.24
						c0-0.02,0.25,0.03,0.72,0.14c0.51,0.13,1.19,0.29,2.03,0.5c1.81,0.47,4.34,1.12,7.44,1.92c6.31,1.68,14.95,3.98,24.49,6.52
						c0.17,0.04,0.33,0.09,0.48,0.13l-0.29,0.13c4.39-8.71,8.35-16.58,11.24-22.33c1.44-2.81,2.61-5.09,3.45-6.73
						c0.4-0.75,0.72-1.36,0.96-1.82C195.31-27.75,195.43-27.97,195.45-27.96z"/>
				</g>
			</g>
		</g>
		<g>
			<g>
				<path class="st3" d="M159.51,28.49c-0.13-0.04,1.65-6.41,3.97-14.22c2.33-7.81,4.32-14.12,4.46-14.08
					c0.13,0.04-1.64,6.4-3.97,14.22C161.64,22.22,159.64,28.53,159.51,28.49z"/>
			</g>
		</g>
		<g>
			<g>
				<path class="st3" d="M184.66-7.6c0.07-0.12,5.88,2.9,12.98,6.74c7.1,3.85,12.81,7.07,12.74,7.19c-0.07,0.12-5.88-2.9-12.98-6.74
					C190.3-4.26,184.59-7.48,184.66-7.6z"/>
			</g>
		</g>
	</g>
</g>
<g id="Background_Complete" class="st0">
	<g class="st1">
		<rect x="-112.94" y="260.94" class="st4" width="500" height="0.25"/>
		<rect x="315.28" y="277.04" class="st4" width="21.68" height="0.25"/>
		<rect x="197.62" y="271.85" class="st4" width="34.11" height="0.25"/>
		<rect x="283.65" y="267.75" class="st4" width="44.53" height="0.25"/>
		<rect x="48.94" y="272.79" class="st4" width="11.14" height="0.25"/>
		<rect x="1.64" y="272.79" class="st4" width="38.39" height="0.25"/>
		<rect x="-46.63" y="268.57" class="st4" width="27.7" height="0.25"/>
		<path class="st4" d="M124.07,216.34h-193.1c-3.15,0-5.71-2.56-5.71-5.71V-60.79c0-3.15,2.56-5.71,5.71-5.71h193.1
			c3.15,0,5.71,2.56,5.71,5.71v271.43C129.78,213.78,127.22,216.34,124.07,216.34z M-69.02-66.25c-3.01,0-5.46,2.45-5.46,5.46
			v271.43c0,3.01,2.45,5.46,5.46,5.46h193.1c3.01,0,5.46-2.45,5.46-5.46V-60.79c0-3.01-2.45-5.46-5.46-5.46H-69.02z"/>
		<path class="st4" d="M340.37,216.34h-193.1c-3.15,0-5.71-2.56-5.71-5.71V-60.79c0-3.15,2.56-5.71,5.71-5.71h193.1
			c3.15,0,5.71,2.56,5.71,5.71v271.43C346.08,213.78,343.52,216.34,340.37,216.34z M147.27-66.25c-3.01,0-5.46,2.45-5.46,5.46
			v271.43c0,3.01,2.45,5.46,5.46,5.46h193.1c3.01,0,5.46-2.45,5.46-5.46V-60.79c0-3.01-2.45-5.46-5.46-5.46H147.27z"/>
	</g>
	<g class="st1">
		<g>
			<path class="st3" d="M2.04,53.17c11.55,0,20.91-9.36,20.91-20.91c0-11.55-9.36-20.91-20.91-20.91h-2.57v41.82H2.04z"/>
			<circle class="st2" cx="-0.53" cy="32.26" r="20.91"/>
			<path class="st3" d="M-1.48,34.89c-15.43,0-27.99-12.56-27.99-27.99V-9.83c0-1.45,1.18-2.63,2.63-2.63
				c1.45,0,2.63,1.18,2.63,2.63V6.9c0,12.54,10.2,22.73,22.73,22.73c1.45,0,2.63,1.18,2.63,2.63C1.14,33.71-0.03,34.89-1.48,34.89z"
				/>
			<path class="st2" d="M-50.11,4.9h46.52c3.19,0,5.51-3.02,4.7-6.1l-4.04-15.24c-0.56-2.13-2.49-3.61-4.7-3.61h-38.45
				c-2.2,0-4.13,1.48-4.7,3.61L-54.8-1.2C-55.62,1.88-53.3,4.9-50.11,4.9z"/>
		</g>
		<g>
			<path class="st3" d="M297.34,53.17c11.55,0,20.91-9.36,20.91-20.91c0-11.55-9.36-20.91-20.91-20.91h-2.56v41.82H297.34z"/>
			<circle class="st2" cx="294.77" cy="32.26" r="20.91"/>
			<path class="st3" d="M293.81,34.89c-15.43,0-27.99-12.56-27.99-27.99V-9.83c0-1.45,1.18-2.63,2.63-2.63
				c1.45,0,2.63,1.18,2.63,2.63V6.9c0,12.54,10.2,22.73,22.73,22.73c1.45,0,2.63,1.18,2.63,2.63
				C296.44,33.71,295.27,34.89,293.81,34.89z"/>
			<path class="st2" d="M245.19,4.9h46.52c3.19,0,5.51-3.02,4.7-6.1l-4.04-15.24c-0.56-2.13-2.49-3.61-4.7-3.61h-38.45
				c-2.2,0-4.13,1.48-4.7,3.61L240.5-1.2C239.68,1.88,242,4.9,245.19,4.9z"/>
		</g>
		<g>
			<g>
				
					<rect x="21.04" y="135.47" transform="matrix(-1 -1.224647e-16 1.224647e-16 -1 57.2893 329.8664)" class="st5" width="15.21" height="58.93"/>
				<polygon class="st6" points="-20.19,194.4 30.28,194.4 37.9,125.43 -12.57,125.43 				"/>
				<polygon class="st2" points="-25.66,194.4 26.48,194.4 34.1,125.43 -18.03,125.43 				"/>
				<polygon class="st7" points="22.71,188.96 29.13,130.86 -14.27,130.86 -20.69,188.96 				"/>
				<path class="st2" d="M13.75,174.88l0.26-2.37c1.61-14.58-7.49-27.57-19.31-27.57l0,0l-0.26,2.37
					C-7.18,161.89,1.92,174.88,13.75,174.88L13.75,174.88z"/>
			</g>
			<g>
				<g>
					
						<rect x="-53.86" y="194.4" transform="matrix(-1 -1.224647e-16 1.224647e-16 -1 -62.873 455.3415)" class="st5" width="44.84" height="66.55"/>
					<polygon class="st6" points="-49.35,260.94 -53.86,260.94 -53.86,248.11 -44.62,248.11 					"/>
					
						<rect x="71.81" y="194.4" transform="matrix(-1 -1.224647e-16 1.224647e-16 -1 188.4664 455.3415)" class="st5" width="44.84" height="66.55"/>
					
						<rect x="-53.86" y="194.4" transform="matrix(-1 -1.224647e-16 1.224647e-16 -1 21.8941 447.4692)" class="st6" width="129.61" height="58.67"/>
					<polygon class="st6" points="71.24,260.94 75.75,260.94 75.75,248.11 66.51,248.11 					"/>
					
						<rect x="-50.36" y="198.07" transform="matrix(-1 -1.224647e-16 1.224647e-16 -1 21.8941 419.8112)" class="st5" width="122.61" height="23.68"/>
					<path class="st6" d="M2.77,213.5h16.35c7.1,0,13.89-2.92,18.78-8.08l0,0h-53.91l0,0C-11.12,210.58-4.33,213.5,2.77,213.5z"/>
					
						<rect x="-50.36" y="225.57" transform="matrix(-1 -1.224647e-16 1.224647e-16 -1 21.8941 474.8142)" class="st5" width="122.61" height="23.68"/>
					<path class="st6" d="M2.77,241h16.35c7.1,0,13.89-2.92,18.78-8.08l0,0h-53.91l0,0C-11.12,238.08-4.33,241,2.77,241z"/>
				</g>
			</g>
			<g>
				<path class="st5" d="M67.54,191.68h1.16c-0.01-2.39,0.01-8.44,0.12-22.31c0.21-25.14,0.61-26.68,0.61-26.68l-2.76,11.61
					C64.92,167.16,67.18,180.07,67.54,191.68z"/>
				<path class="st5" d="M65.25,152.57c-3.97-4.73-12.45-6.11-21.13-7.29c-3.41-0.46,8.96,7.33,15,12.86c4.7,4.3,7.7,5.49,8.99,9.77
					C68.78,162.58,68.67,156.65,65.25,152.57z"/>
				<path class="st5" d="M70.52,161.03c3.97-4.73,12.45-6.11,21.13-7.29c3.41-0.46-8.96,7.33-15,12.86c-4.7,4.3-7.7,5.49-8.99,9.77
					C66.99,171.03,67.1,165.11,70.52,161.03z"/>
				<path class="st5" d="M68.82,141.58c2.98-5.65,10.47-10.98,18.87-13c3.3-0.79-7.64,10.44-11.8,17.69
					c-3.23,5.63-7.52,12.24-8.18,16.99C66.7,153.85,65.84,147.24,68.82,141.58z"/>
				<g>
					<path class="st6" d="M68.46,194.4L68.46,194.4c-3.55,0-6.48-1.78-6.68-4.05l-0.59-3.89h14.54l-0.59,3.89
						C74.94,192.62,72.01,194.4,68.46,194.4z"/>
					<polygon class="st6" points="76.68,187.96 60.25,187.96 59.78,183.63 77.15,183.63 					"/>
				</g>
			</g>
		</g>
		<g>
			<g>
				<g>
					<g>
						
							<rect x="56.6" y="-40.86" transform="matrix(-1 -1.224647e-16 1.224647e-16 -1 273.4065 64.4044)" class="st5" width="160.21" height="146.13"/>
						
							<rect x="52.99" y="-40.86" transform="matrix(-1 -1.224647e-16 1.224647e-16 -1 268.2342 64.4044)" class="st2" width="162.24" height="146.13"/>
						
							<rect x="67.6" y="-42.45" transform="matrix(-1.836970e-16 1 -1 -1.836970e-16 166.3193 -101.9149)" class="st8" width="133.04" height="149.3"/>
						<polygon class="st7" points="190.45,98.72 131.69,-34.32 111.73,-34.32 170.49,98.72 						"/>
						<polygon class="st7" points="164.83,98.72 106.07,-34.32 92.33,-34.32 151.09,98.72 						"/>
						
							<rect x="44.52" y="28.34" transform="matrix(-1.836970e-16 1 -1 -1.836970e-16 143.2458 -78.8413)" class="st5" width="133.04" height="7.72"/>
						
							<rect x="95.84" y="28.34" transform="matrix(-1.836970e-16 1 -1 -1.836970e-16 194.5652 -130.1607)" class="st5" width="133.04" height="7.72"/>
						
							<rect x="37.6" y="26.97" transform="matrix(-1.836970e-16 1 -1 -1.836970e-16 140.4772 -76.7865)" class="st2" width="142.06" height="9.76"/>
						
							<rect x="88.92" y="26.97" transform="matrix(-1.836970e-16 1 -1 -1.836970e-16 191.7967 -128.106)" class="st2" width="142.06" height="9.76"/>
						
							<rect x="-6.71" y="31.86" transform="matrix(-1.836970e-16 1 -1 -1.836970e-16 92.0122 -27.6078)" class="st5" width="133.04" height="0.69"/>
					</g>
				</g>
			</g>
			<g>
				<g>
					<path class="st5" d="M50.28-49.28h173.57c0.46,0,0.83,0.38,0.83,0.83l0,0c0,0.46-0.38,0.83-0.83,0.83H50.28
						c-0.46,0-0.83-0.38-0.83-0.83l0,0C49.44-48.91,49.82-49.28,50.28-49.28z"/>
					<path class="st5" d="M216.81-43.77L216.81-43.77c0.62,0,1.13-0.51,1.13-1.13v-2.42c0-0.62-0.51-1.13-1.13-1.13l0,0
						c-0.62,0-1.13,0.51-1.13,1.13v2.42C215.68-44.28,216.19-43.77,216.81-43.77z"/>
					<path class="st5" d="M62.86-43.77L62.86-43.77c0.62,0,1.13-0.51,1.13-1.13v-2.42c0-0.62-0.51-1.13-1.13-1.13l0,0
						c-0.62,0-1.13,0.51-1.13,1.13v2.42C61.74-44.28,62.24-43.77,62.86-43.77z"/>
				</g>
				
					<rect x="50.54" y="-48.45" transform="matrix(-1 -1.224647e-16 1.224647e-16 -1 263.2146 17.5415)" class="st9" width="162.13" height="114.44"/>
			</g>
		</g>
		<g>
			<g>
				<path class="st8" d="M227.35,162.22H199.4c-2.97,0-5.38-2.41-5.38-5.38V143.9c0-2.97,2.41-5.38,5.38-5.38h27.95
					c2.97,0,5.38,2.41,5.38,5.38v12.94C232.73,159.81,230.32,162.22,227.35,162.22z"/>
				<path class="st5" d="M230.92,139.21h-35.1c-1,0-1.81-0.81-1.81-1.81v-1.46c0-1,0.81-1.81,1.81-1.81h35.1
					c1,0,1.81,0.81,1.81,1.81v1.46C232.73,138.4,231.92,139.21,230.92,139.21z"/>
			</g>
			<g>
				<path class="st6" d="M194.58,188.5c0,0,0.51,16.66,19.93,16.66c19.42,0,19.93-16.66,19.93-16.66H194.58z"/>
			</g>
			<g>
				<path class="st6" d="M238.86,188.5c0,0,0.51,16.66,19.93,16.66c19.42,0,19.93-16.66,19.93-16.66H238.86z"/>
			</g>
			<g>
				<path class="st6" d="M269.11,162.22H230.7c-4.08,0-7.4-3.31-7.4-7.4v-19.64c0-4.09,3.31-7.4,7.4-7.4h38.41
					c4.08,0,7.4,3.31,7.4,7.4v19.64C276.5,158.91,273.19,162.22,269.11,162.22z"/>
				<path class="st2" d="M274.02,128.74h-48.24c-1.37,0-2.48-1.11-2.48-2.48v-2.01c0-1.37,1.11-2.48,2.48-2.48h48.24
					c1.37,0,2.48,1.11,2.48,2.48v2.01C276.5,127.63,275.39,128.74,274.02,128.74z"/>
			</g>
			<g>
				
					<rect x="179.96" y="178.3" transform="matrix(-1 -1.224647e-16 1.224647e-16 -1 364.9508 439.2426)" class="st5" width="5.04" height="82.64"/>
				<g>
					<g>
						<rect x="298.19" y="162.22" class="st5" width="27.29" height="16.08"/>
						
							<rect x="162.51" y="162.22" transform="matrix(-1 -1.224647e-16 1.224647e-16 -1 460.6944 340.5165)" class="st2" width="135.68" height="16.08"/>
					</g>
				</g>
				<g>
					<g>
						<rect x="298.19" y="205.16" class="st5" width="27.29" height="16.08"/>
						
							<rect x="162.51" y="205.16" transform="matrix(-1 -1.224647e-16 1.224647e-16 -1 460.6944 426.4095)" class="st2" width="135.68" height="16.08"/>
					</g>
				</g>
				
					<rect x="315.64" y="178.3" transform="matrix(-1 -1.224647e-16 1.224647e-16 -1 636.3127 439.2426)" class="st5" width="5.04" height="82.64"/>
				
					<rect x="293.15" y="178.3" transform="matrix(-1 -1.224647e-16 1.224647e-16 -1 591.3371 439.2426)" class="st2" width="5.04" height="82.64"/>
				
					<rect x="162.51" y="178.3" transform="matrix(-1 -1.224647e-16 1.224647e-16 -1 330.0516 439.2426)" class="st2" width="5.04" height="82.64"/>
			</g>
		</g>
	</g>
</g>
<g id="Background_Simple" class="st0">
	<g class="st1">
		<path class="st10" d="M311.05,143.86c10.08,46.03-18.09,75.73-57.11,74.35c-18.71-0.66-41.05-21.23-59.43-25.82
			c-23.98-5.98-44.75,1.77-67.69,2.91c-57.05,2.82-56.3-20.46-94.74-50.48c-27.03-21.1-70.57-18.79-85.03-55.74
			c-17.68-45.16,32.99-66.98,71.5-60.3c44.24,7.68,56.49-47.4,124.06-41.3C209.1-6.51,296.85,74.53,311.05,143.86z"/>
		<path class="st11" d="M311.05,143.86c10.08,46.03-18.09,75.73-57.11,74.35c-18.71-0.66-41.05-21.23-59.43-25.82
			c-23.98-5.98-44.75,1.77-67.69,2.91c-57.05,2.82-56.3-20.46-94.74-50.48c-27.03-21.1-70.57-18.79-85.03-55.74
			c-17.68-45.16,32.99-66.98,71.5-60.3c44.24,7.68,56.49-47.4,124.06-41.3C209.1-6.51,296.85,74.53,311.05,143.86z"/>
	</g>
</g>
<g id="Shadow_1_">
	<ellipse id="_x3C_Path_x3E__137_" class="st2" cx="85.36" cy="266.92" rx="85.36" ry="4.99"/>
</g>
<g id="Login">
	<g>
		<g>
			<path class="st10" d="M147.47,244.04H19.9c-4.22,0-7.81-3.42-8.03-7.63L0.46,14.86C0.24,10.64,3.48,7.23,7.7,7.23h127.57
				c4.22,0,7.81,3.42,8.03,7.63l11.42,221.55C154.93,240.62,151.69,244.04,147.47,244.04z"/>
			<path class="st12" d="M147.47,244.04H19.9c-4.22,0-7.81-3.42-8.03-7.63L0.46,14.86C0.24,10.64,3.48,7.23,7.7,7.23h127.57
				c4.22,0,7.81,3.42,8.03,7.63l11.42,221.55C154.93,240.62,151.69,244.04,147.47,244.04z"/>
		</g>
		<rect x="108.57" class="st10" width="14.11" height="1"/>
		<rect x="98.51" class="st10" width="5.17" height="1"/>
		<path class="st10" d="M152.96,229.99H30.95c-4.03,0-7.47-3.27-7.68-7.3L12.35,10.8c-0.21-4.03,2.89-7.3,6.92-7.3h122.01
			c4.03,0,7.47,3.27,7.68,7.3l10.92,211.89C160.09,226.72,156.99,229.99,152.96,229.99z"/>
		<path class="st7" d="M152.96,225.11H30.95c-1.42,0-2.73-1.25-2.81-2.67L17.22,10.55c-0.04-0.77,0.27-1.27,0.54-1.56
			c0.27-0.28,0.75-0.62,1.51-0.62h122.01c1.42,0,2.73,1.25,2.81,2.68l10.92,211.89c0.04,0.77-0.27,1.27-0.54,1.56
			C154.2,224.78,153.73,225.11,152.96,225.11z M19.28,8.63c-0.68,0-1.1,0.29-1.33,0.54c-0.24,0.25-0.51,0.69-0.47,1.37l10.92,211.89
			c0.07,1.3,1.26,2.44,2.56,2.44h122.01c0.68,0,1.1-0.29,1.33-0.54c0.24-0.25,0.51-0.69,0.47-1.37L143.84,11.06
			c-0.07-1.3-1.26-2.44-2.56-2.44H19.28z"/>
		
			<ellipse transform="matrix(0.6979 -0.7162 0.7162 0.6979 -17.2508 77.4169)" class="st13" cx="83.15" cy="59.16" rx="36" ry="37.9"/>
		<path class="st7" d="M113.03,59.16c0.27,5.16-0.79,10.01-2.88,14.23c-4.56,9.31-14.11,15.65-25.47,15.65s-21.56-6.33-27.08-15.65
			c-2.52-4.23-4.08-9.07-4.34-14.23C52.42,42.65,65.1,29.28,81.61,29.28S112.18,42.65,113.03,59.16z"/>
		<path class="st10" d="M110.16,73.39c-4.56,9.31-14.11,15.65-25.47,15.65s-21.56-6.33-27.08-15.65c7.26-5.03,16.14-7.96,25.86-7.96
			S102.37,68.37,110.16,73.39z"/>
		
			<ellipse transform="matrix(0.6979 -0.7162 0.7162 0.6979 -10.088 73.9525)" class="st10" cx="82.62" cy="48.94" rx="12.97" ry="13.66"/>
		<g>
			<path class="st7" d="M135.47,147.57H39.94c-1.71,0-3.16-1.38-3.25-3.09l-0.72-14.04c-0.09-1.71,1.22-3.09,2.93-3.09h95.53
				c1.71,0,3.16,1.38,3.25,3.09l0.72,14.04C138.49,146.18,137.18,147.57,135.47,147.57z"/>
			<path class="st14" d="M106.22,119.64h-39.9c-1.71,0-3.16-1.38-3.25-3.09l-0.15-2.98c-0.09-1.71,1.22-3.09,2.93-3.09h39.9
				c1.71,0,3.16,1.38,3.25,3.09l0.15,2.98C109.23,118.26,107.92,119.64,106.22,119.64z"/>
			<path class="st14" d="M121.05,214.85H61.29c-2.91,0-5.38-2.36-5.53-5.26l-0.36-6.89c-0.15-2.91,2.08-5.26,4.99-5.26h59.76
				c2.91,0,5.38,2.36,5.53,5.26l0.36,6.89C126.19,212.5,123.96,214.85,121.05,214.85z"/>
			<path class="st7" d="M137.22,181.4H41.68c-1.71,0-3.16-1.38-3.25-3.09l-0.72-14.04c-0.09-1.71,1.22-3.09,2.93-3.09h95.53
				c1.71,0,3.16,1.38,3.25,3.09l0.72,14.04C140.23,180.02,138.92,181.4,137.22,181.4z"/>
			<path class="st15" d="M52.09,137.46c0.1,1.89-1.35,3.42-3.24,3.42s-3.5-1.53-3.6-3.42c-0.1-1.89,1.35-3.42,3.24-3.42
				S51.99,135.57,52.09,137.46z"/>
			<path class="st15" d="M62.6,137.46c0.1,1.89-1.35,3.42-3.24,3.42c-1.89,0-3.5-1.53-3.6-3.42s1.35-3.42,3.24-3.42
				C60.89,134.04,62.5,135.57,62.6,137.46z"/>
			<path class="st15" d="M73.1,137.46c0.1,1.89-1.35,3.42-3.24,3.42c-1.89,0-3.5-1.53-3.6-3.42c-0.1-1.89,1.35-3.42,3.24-3.42
				C71.4,134.04,73.01,135.57,73.1,137.46z"/>
			<path class="st15" d="M83.61,137.46c0.1,1.89-1.35,3.42-3.24,3.42c-1.89,0-3.5-1.53-3.6-3.42c-0.1-1.89,1.35-3.42,3.24-3.42
				C81.9,134.04,83.51,135.57,83.61,137.46z"/>
			<path class="st15" d="M53.83,171.29c0.1,1.89-1.35,3.42-3.24,3.42c-1.89,0-3.5-1.53-3.6-3.42c-0.1-1.89,1.35-3.42,3.24-3.42
				C52.12,167.87,53.73,169.41,53.83,171.29z"/>
			<path class="st15" d="M64.34,171.29c0.1,1.89-1.35,3.42-3.24,3.42s-3.5-1.53-3.6-3.42c-0.1-1.89,1.35-3.42,3.24-3.42
				S64.24,169.41,64.34,171.29z"/>
			<path class="st15" d="M74.85,171.29c0.1,1.89-1.35,3.42-3.24,3.42c-1.89,0-3.5-1.53-3.6-3.42c-0.1-1.89,1.35-3.42,3.24-3.42
				C73.14,167.87,74.75,169.41,74.85,171.29z"/>
			<path class="st15" d="M85.35,171.29c0.1,1.89-1.35,3.42-3.24,3.42c-1.89,0-3.5-1.53-3.6-3.42c-0.1-1.89,1.35-3.42,3.24-3.42
				C83.65,167.87,85.26,169.41,85.35,171.29z"/>
			<path class="st15" d="M95.86,171.29c0.1,1.89-1.35,3.42-3.24,3.42c-1.89,0-3.5-1.53-3.6-3.42c-0.1-1.89,1.35-3.42,3.24-3.42
				C94.15,167.87,95.76,169.41,95.86,171.29z"/>
			<path class="st15" d="M106.37,171.29c0.1,1.89-1.35,3.42-3.24,3.42c-1.89,0-3.5-1.53-3.6-3.42c-0.1-1.89,1.35-3.42,3.24-3.42
				C104.66,167.87,106.27,169.41,106.37,171.29z"/>
		</g>
	</g>
</g>
<g id="Character_1_" class="st0">
	<g class="st1">
		<g>
			<path class="st16" d="M220.09,55.17c0.25,0.37,0.38,0.58,0.54,0.84l0.45,0.75c0.29,0.49,0.54,0.99,0.8,1.48
				c0.5,0.99,0.97,1.98,1.4,2.98c0.86,2,1.56,4.04,2.17,6.1c1.23,4.11,1.98,8.32,2.37,12.54l0.08,0.79
				c0.01,0.11,0.02,0.29,0.03,0.48l0.02,0.54c0.01,0.71-0.02,1.41-0.12,2.08c-0.19,1.34-0.55,2.58-0.99,3.72
				c-0.9,2.28-2.13,4.22-3.46,5.98c-2.71,3.51-5.79,6.32-9.31,8.81l-2.75-3.23c2.47-2.86,4.87-6.03,6.64-9.19
				c0.9-1.58,1.6-3.2,2.03-4.72c0.2-0.76,0.31-1.49,0.33-2.14c0.02-0.33,0-0.64-0.03-0.93l-0.03-0.21
				c-0.01-0.06-0.01-0.14-0.04-0.27l-0.13-0.7c-0.65-3.75-1.55-7.44-2.72-11c-0.57-1.79-1.29-3.51-2.01-5.21
				c-0.36-0.85-0.75-1.68-1.15-2.48l-0.62-1.17l-0.31-0.56l-0.25-0.44L220.09,55.17z"/>
			<path class="st17" d="M210.76,102.32l3.62,7.65l2.87-6.46c0,0-2.54-5.6-5.99-5.09L210.76,102.32z"/>
			<polygon class="st17" points="216.97,110.34 219.85,105.63 217.25,103.5 214.38,109.96 			"/>
			<path class="st10" d="M200.69,286.76c0.77,0,1.62-0.16,2.21-0.3c0.08-0.02,0.14-0.08,0.15-0.16c0.01-0.08-0.02-0.16-0.09-0.2
				c-0.29-0.19-2.83-1.83-3.81-1.39c-0.15,0.07-0.35,0.22-0.39,0.56c-0.06,0.44,0.05,0.8,0.33,1.05
				C199.46,286.65,200.05,286.76,200.69,286.76z M202.34,286.18c-1.46,0.29-2.55,0.24-2.98-0.15c-0.18-0.16-0.25-0.4-0.2-0.71
				c0.02-0.17,0.1-0.22,0.17-0.25C199.84,284.84,201.31,285.55,202.34,286.18z"/>
			<path class="st10" d="M202.86,286.47c0.03,0,0.07-0.01,0.1-0.03c0.06-0.04,0.1-0.1,0.1-0.17c0-0.1-0.01-2.51-0.92-3.32
				c-0.24-0.21-0.53-0.3-0.84-0.27c-0.5,0.06-0.63,0.37-0.67,0.55c-0.19,0.94,1.33,2.75,2.13,3.2
				C202.79,286.46,202.83,286.47,202.86,286.47z M201.44,283.07c0.16,0,0.31,0.06,0.44,0.17c0.54,0.48,0.73,1.83,0.78,2.64
				c-0.8-0.64-1.75-1.99-1.63-2.57c0.02-0.09,0.07-0.21,0.33-0.24C201.38,283.07,201.41,283.07,201.44,283.07z"/>
			<path class="st10" d="M191.25,282.68c0.05-0.05,0.06-0.12,0.04-0.19c-0.02-0.08-0.1-0.14-0.18-0.14
				c-0.42-0.02-4.01-0.17-4.82,0.71c-0.02,0.02-0.03,0.04-0.05,0.06c-0.13,0.18-0.16,0.4-0.09,0.62c0.13,0.37,0.38,0.62,0.73,0.73
				c1.16,0.36,3.21-0.94,4.33-1.75C191.23,282.7,191.24,282.69,191.25,282.68z M186.59,283.32c0.45-0.48,2.42-0.61,3.91-0.59
				c-1.56,1.06-2.84,1.56-3.5,1.36c-0.23-0.07-0.38-0.23-0.47-0.48c-0.04-0.1-0.03-0.18,0.03-0.25
				C186.57,283.34,186.58,283.33,186.59,283.32z"/>
			<path class="st10" d="M191.25,282.68c0.01-0.01,0.02-0.02,0.03-0.03c0.04-0.06,0.04-0.14,0-0.2c-0.05-0.08-1.16-2.05-2.49-2.41
				c-0.4-0.11-0.79-0.06-1.14,0.15c-0.48,0.28-0.5,0.6-0.44,0.82c0.26,0.93,2.81,1.74,3.9,1.74
				C191.16,282.75,191.21,282.72,191.25,282.68z M187.66,280.68c0.04-0.04,0.1-0.09,0.19-0.15c0.26-0.15,0.53-0.19,0.84-0.11
				c0.87,0.23,1.69,1.35,2.05,1.9c-1.18-0.14-2.99-0.87-3.15-1.42C187.58,280.87,187.56,280.79,187.66,280.68z"/>
			<path class="st17" d="M202.26,25.88c-0.97,4.97-3.16,15.81,0.31,19.13c0,0-1.36,5.04-10.59,5.04c-10.16,0-4.85-5.04-4.85-5.04
				c5.54-1.32,5.4-5.44,4.43-9.3L202.26,25.88z"/>
			<path class="st15" d="M185.34,14.15c0.06,0,0.12-0.01,0.18-0.04c0.2-0.1,0.28-0.34,0.18-0.53c-0.98-1.96-2.8-2.19-2.88-2.2
				c-0.22-0.03-0.41,0.13-0.44,0.35c-0.02,0.22,0.13,0.41,0.35,0.44l0,0c0.06,0.01,1.48,0.2,2.26,1.77
				C185.05,14.07,185.19,14.15,185.34,14.15z"/>
			<path class="st18" d="M182.31,18.5c0,0-1.5,2.75-2.92,3.98c0.78,0.94,2.33,0.74,2.33,0.74L182.31,18.5z"/>
			<path class="st15" d="M183.05,17.42c-0.08,0.67-0.51,1.17-0.94,1.12c-0.44-0.05-0.73-0.64-0.64-1.31
				c0.08-0.67,0.51-1.17,0.94-1.12C182.84,16.16,183.13,16.75,183.05,17.42z"/>
			<path class="st15" d="M182.6,16.17l-1.55-0.66C181.04,15.5,181.71,16.86,182.6,16.17z"/>
			<polygon class="st17" points="200.08,280.78 191.92,282.69 186.96,263.92 195.12,262.02 			"/>
			<polygon class="st17" points="212.6,286.27 204.22,286.27 204.88,266.87 213.26,266.87 			"/>
			<path class="st15" d="M203.56,285.3h9.41c0.34,0,0.62,0.24,0.67,0.57l1.07,7.45c0.11,0.77-0.55,1.5-1.34,1.49
				c-3.28-0.06-4.86-0.25-9-0.25c-2.55,0-6.27,0.26-9.78,0.26c-3.44,0-3.7-3.48-2.24-3.79c6.56-1.41,7.6-3.36,9.81-5.22
				C202.56,285.48,203.06,285.3,203.56,285.3z"/>
			<path class="st15" d="M191.2,281.44l8.55-3.93c0.31-0.14,0.66-0.04,0.85,0.24l4.09,6.32c0.42,0.66,0.13,1.6-0.6,1.91
				c-3,1.32-4.52,1.81-8.28,3.54c-2.31,1.06-6.99,3.51-10.18,4.97c-3.12,1.44-4.82-1.61-3.62-2.51c5.37-4.03,6.91-6.87,8.14-9.49
				C190.36,282.02,190.74,281.65,191.2,281.44z"/>
			<g>
				<polygon class="st19" points="186.97,263.93 189.62,273.98 197.68,271.69 195.13,262.02 				"/>
				<polygon class="st19" points="213.26,266.88 204.88,266.88 204.55,276.88 212.93,276.88 				"/>
			</g>
			<path class="st15" d="M217.02,46.91c3.48,0.76,7.2,13.28,7.2,13.28l-9.84,10.46c0,0-8.16-11.76-6.5-16.08
				C209.61,50.07,212.91,46.01,217.02,46.91z"/>
			<path class="st20" d="M211.5,54.88c-1.76-1.61-2.95-1.13-3.76,0.15c-0.8,3.72,3.94,11.51,5.85,14.46
				C214.47,65.96,215.48,58.54,211.5,54.88z"/>
			<path class="st15" d="M172.97,47.15c0,0-3.99,1.41,4,50.56c13.5,0,27.45,0,34.02,0c-0.57-13.85-0.59-22.38,6.03-50.8
				c0,0-7.13-1.55-14.45-1.9c-5.72-0.28-10.41-0.46-15.45,0C180.49,45.61,172.97,47.15,172.97,47.15z"/>
			<path class="st20" d="M172.66,66.01c0.22,2.39,0.51,5.08,0.89,8.12c2.79-2.51,5.06-9.65,4.23-13.81
				C175.83,61.77,174.03,64.01,172.66,66.01z"/>
			<path class="st16" d="M176.3,58.56c-1.85,4.67-3.89,9.12-6.18,13.56c-2.29,4.43-4.74,8.78-7.99,13l-0.64,0.79l-0.32,0.39
				c-0.11,0.13-0.2,0.25-0.37,0.43c-0.62,0.68-1.29,1.27-1.98,1.76c-1.38,0.98-2.8,1.61-4.18,2.09c-2.76,0.93-5.44,1.26-8.04,1.42
				c-5.23,0.21-10.17-0.27-15.16-1.35l0.55-4.21c2.3,0.01,4.71-0.04,7.03-0.19c2.34-0.12,4.65-0.37,6.87-0.77
				c2.21-0.37,4.35-0.93,6.14-1.71c0.88-0.39,1.65-0.87,2.21-1.35c0.28-0.24,0.51-0.48,0.68-0.72c0.04-0.03,0.13-0.17,0.2-0.27
				l0.23-0.33l0.47-0.66c2.46-3.65,4.63-7.88,6.69-12.11c2.03-4.25,3.99-8.66,5.82-12.97L176.3,58.56z"/>
			<path class="st15" d="M172.97,47.15c-4.16,1.01-9.29,12.44-9.29,12.44l8.64,12.7c0,0,11.5-14.48,10.14-18.91
				C181.03,48.77,178.02,45.92,172.97,47.15z"/>
			<path class="st17" d="M134.39,87.06l-7.21-3.33l-0.72,7.17c0,0,6.02,1.77,8.99-0.04L134.39,87.06z"/>
			<polygon class="st17" points="122.87,83.01 122.18,88.46 126.46,90.89 127.18,83.73 			"/>
			<path class="st17" d="M205.88,17.91c-1.52,8.17-2,11.66-6.68,15.38c-7.04,5.58-16.75,1.92-17.69-6.54
				c-0.85-7.62,1.78-19.7,10.25-21.98C200.1,2.52,207.4,9.73,205.88,17.91z"/>
			<path class="st15" d="M187.93,19.63c-0.47,4.17-0.65,14.99,8.51,15.33c11.22,0.42,14.58-9.17,13.58-13
				c5.83-4.75,6.68-12.92,0.12-19.17c-6.56-6.25-21-2.76-25.03,3.33C180.1,13.68,187.93,19.63,187.93,19.63z"/>
			<path class="st10" d="M199.16,5.22c-0.54-4.39-0.12-7.43,3.99-7.43c4.11,0,9.74,1.49,11.8,5.7c2.06,4.21,2.23,10.8-3.52,10.13
				C205.68,12.96,199.81,10.48,199.16,5.22z"/>
			<path class="st15" d="M205.54,4.17c-0.98-5.24,3.69-20,15.09-20.96c5.28-0.44,7.72,5.24,4.96,6.17c4.99-0.06,8.2,6.55,3.54,7.54
				c3.69,2.36,2.77,7.2-2.48,9.58C222.77,8.25,206.89,11.42,205.54,4.17z"/>
			<path class="st15" d="M217.71,9.8c-3.67,0-7.5-0.54-9.88-2.13c-1.44-0.97-2.23-2.25-2.35-3.81c-0.01-0.14,0.09-0.26,0.23-0.27
				c0.15-0.01,0.26,0.09,0.27,0.23c0.11,1.4,0.82,2.55,2.13,3.43c4.52,3.03,14.98,2.05,18.26,0.98c2.82-0.92,4.73-2.7,5.11-4.77
				c0.28-1.52-0.32-2.95-1.67-4.05c-0.11-0.09-0.12-0.24-0.04-0.35c0.09-0.11,0.24-0.12,0.35-0.04c1.49,1.2,2.16,2.85,1.85,4.53
				c-0.41,2.25-2.45,4.18-5.44,5.15C224.81,9.27,221.34,9.8,217.71,9.8z"/>
			<path class="st17" d="M185.38,18.52c-1,1.39-1.29,3.12-1.07,4.51c0.33,2.1,2.38,2.24,3.86,0.89c1.33-1.21,2.76-3.76,1.67-5.5
				C188.76,16.72,186.53,16.93,185.38,18.52z"/>
			<path class="st10" d="M185.95,97.71c0,0,4.86,57.49,9.9,89.89c4.07,26.17,7.29,87.34,7.29,87.34h11.42c0,0,4.06-59.34,1.99-85.23
				c-5.23-65.5,6.44-70.83-5.57-92.01H185.95z"/>
			<path class="st20" d="M200.33,119.43c-4.61,4.71-8.12,10.34-10.79,16.28c1.33,12.92,2.91,27.26,4.59,39.82
				C199.33,162.4,203.78,142.2,200.33,119.43z"/>
			<path class="st10" d="M177.96,97.34c0,0-10.55,62.79-12.21,91.09c4.14,26.17,21.08,81.49,21.08,81.49l10.39-3.76
				c0,0-5.75-60.32-12.03-76.83c14.07-47.37,24.41-59.34,21.4-91.62C199.41,97.71,177.96,97.34,177.96,97.34z"/>
			<polygon class="st15" points="185.44,272.68 199.48,268.87 198.68,263.28 183.65,267.34 			"/>
			<polygon class="st15" points="201.58,275.17 216.13,275.17 216.89,270.06 201.5,269.54 			"/>
			<g>
				<path class="st10" d="M211.5,95.71l1.53,3.05c0.12,0.24-0.16,0.48-0.55,0.48H176.8c-0.31,0-0.56-0.15-0.58-0.34l-0.31-3.04
					c-0.02-0.21,0.24-0.39,0.58-0.39h34.45C211.2,95.45,211.42,95.56,211.5,95.71z"/>
				<path class="st21" d="M211.5,95.71l1.53,3.05c0.12,0.24-0.16,0.48-0.55,0.48H176.8c-0.31,0-0.56-0.15-0.58-0.34l-0.31-3.04
					c-0.02-0.21,0.24-0.39,0.58-0.39h34.45C211.2,95.45,211.42,95.56,211.5,95.71z"/>
			</g>
			<path class="st10" d="M206.87,99.56h0.92c0.18,0,0.32-0.09,0.31-0.21l-0.43-3.96c-0.01-0.12-0.17-0.21-0.36-0.21h-0.92
				c-0.18,0-0.32,0.09-0.31,0.21l0.43,3.96C206.53,99.47,206.69,99.56,206.87,99.56z"/>
			<g>
				<path class="st10" d="M194.49,70.42c-0.23,0-0.42-0.15-0.48-0.37c-3.26-12.05-10.04-21.97-13.28-23.5
					c-0.36-0.17-0.66-0.22-0.84-0.14c-0.25,0.11-0.55,0-0.66-0.25c-0.11-0.25,0-0.55,0.25-0.66c0.47-0.21,1.03-0.16,1.68,0.15
					c3.45,1.63,10.29,11.43,13.71,23.77c2.45-0.03,6.23-0.34,7.15-0.41c1.14-1.36,9.53-11.84,6.39-23.3
					c-0.07-0.27,0.08-0.54,0.35-0.61c0.26-0.07,0.54,0.08,0.61,0.35c3.49,12.76-6.63,24.27-6.74,24.38
					c-0.08,0.09-0.2,0.15-0.33,0.16C202.26,69.99,197.27,70.42,194.49,70.42z"/>
				<g>
					<g>
						<path class="st10" d="M211.05,77.49c-5.45-10.22-7.68-10.93-8.65-14.22c0,0,0.88-2.48,3.11-4.99
							c-0.67-0.19-2.08-0.47-2.97-0.64c0.1-0.45,0.2-0.89,0.31-1.31c-0.74-0.2-2.27,0.01-3.05,0.14l-0.03-1.01
							c0,0-2.76-0.55-3.88-0.25c0.11,0.46,0.22,0.95,0.33,1.44c-0.97,0.19-2.53,0.5-3.26,0.7c2.12,2.39,2.89,4.94,3.05,5.57
							c-2.94,5.04-14.36,37.51,4.22,39.95C218.81,105.32,216.5,87.71,211.05,77.49z"/>
						<path class="st22" d="M211.05,77.49c-5.45-10.22-7.68-10.93-8.65-14.22c0,0,0.88-2.48,3.11-4.99
							c-0.67-0.19-2.08-0.47-2.97-0.64c0.1-0.45,0.2-0.89,0.31-1.31c-0.74-0.2-2.27,0.01-3.05,0.14l-0.03-1.01
							c0,0-2.76-0.55-3.88-0.25c0.11,0.46,0.22,0.95,0.33,1.44c-0.97,0.19-2.53,0.5-3.26,0.7c2.12,2.39,2.89,4.94,3.05,5.57
							c-2.94,5.04-14.36,37.51,4.22,39.95C218.81,105.32,216.5,87.71,211.05,77.49z"/>
					</g>
					<path class="st10" d="M195.32,61.96c-0.14,0.25-0.13,1.19-0.15,1.56c-0.02,0.38,0.98,0.63,2.1,0.73
						c1.13,0.1,5.77,0.29,5.63-0.23c-0.15-0.52,0.23-1.23,0.25-1.67c0.02-0.44-1.85-0.46-3.42-0.4S195.63,61.4,195.32,61.96z"/>
				</g>
			</g>
			<path class="st10" d="M184.51,99.56h0.92c0.18,0,0.32-0.09,0.31-0.21l-0.43-3.96c-0.01-0.12-0.17-0.21-0.36-0.21h-0.92
				c-0.18,0-0.32,0.09-0.31,0.21l0.43,3.96C184.16,99.47,184.32,99.56,184.51,99.56z"/>
		</g>
	</g>
</g>
</svg>
